<svg width="304" height="281" viewBox="0 0 304 281" fill="none" xmlns="http://www.w3.org/2000/svg">
<path d="M149.712 6.17764C151.148 5.43861 152.852 5.43862 154.288 6.17764L280.924 71.3543C282.589 72.2113 283.636 73.9271 283.636 75.8V205.2C283.636 207.073 282.589 208.789 280.924 209.646L154.288 274.822C152.852 275.561 151.148 275.561 149.712 274.822L23.076 209.646C21.4108 208.789 20.3641 207.073 20.3641 205.2V75.8C20.3641 73.9271 21.4108 72.2113 23.076 71.3543L149.712 6.17764Z" stroke="#0075FF" stroke-width="10"/>
<path d="M118.942 201H89.2827L134.474 70.0909H170.142L215.27 201H185.611L152.82 100.006H151.797L118.942 201ZM117.088 149.544H187.145V171.149H117.088V149.544Z" fill="#0075FF"/>
</svg>
